<svg xmlns="http://www.w3.org/2000/svg" width="1024" height="1024" viewBox="0 0 1024 1024">
  <defs>
    <style>
      .skin { fill: rgb(255, 218, 200); }
      .blush { fill: rgba(255, 180, 170, 0.47058823529411764); }
      .hair { fill: rgb(235, 205, 60); }
      .diaper { fill: rgb(250, 160, 190); }
      .eye { fill: rgb(60, 70, 90); }
      .white { fill: rgb(255, 255, 255); }
      .mouth { stroke: rgb(210, 100, 120); stroke-width: 6; fill: none; }
    </style>
  </defs>
  <g>
    <ellipse cx="512" cy="900" rx="220" ry="40" fill="rgba(0,0,0,0.1)"/>
    <ellipse class="skin" cx="512" cy="600" rx="140" ry="160"/>
    <ellipse class="skin" cx="512" cy="390" rx="160" ry="170"/>
    <ellipse class="skin" cx="392" cy="400" rx="24" ry="28"/>
    <ellipse class="skin" cx="632" cy="400" rx="24" ry="28"/>
    <polygon class="hair" points="492,230 522,215 552,230 522,250"/>
    <circle class="hair" cx="520" cy="240" r="18"/>
    <circle class="eye" cx="457" cy="360" r="20"/>
    <circle class="eye" cx="567" cy="360" r="20"/>
    <circle class="white" cx="462" cy="355" r="8"/>
    <circle class="white" cx="572" cy="355" r="8"/>
    <ellipse class="blush" cx="422" cy="385" rx="26" ry="18"/>
    <ellipse class="blush" cx="602" cy="385" rx="26" ry="18"/>
    <path class="mouth" d="M462 410 Q512 450 562 410"/>
    <ellipse class="skin" cx="362" cy="560" rx="45" ry="35"/>
    <ellipse class="skin" cx="662" cy="560" rx="45" ry="35"/>
    <ellipse class="skin" cx="322" cy="605" rx="35" ry="30"/>
    <ellipse class="skin" cx="702" cy="605" rx="35" ry="30"/>
    <ellipse class="skin" cx="292" cy="640" rx="28" ry="24"/>
    <ellipse class="skin" cx="732" cy="640" rx="28" ry="24"/>
    <rect class="diaper" x="382" y="660" width="260" height="120" rx="40" ry="40"/>
    <ellipse class="skin" cx="427" cy="760" rx="55" ry="40"/>
    <ellipse class="skin" cx="597" cy="760" rx="55" ry="40"/>
    <ellipse class="skin" cx="422" cy="830" rx="55" ry="70"/>
    <ellipse class="skin" cx="602" cy="830" rx="55" ry="70"/>
    <ellipse class="skin" cx="402" cy="900" rx="70" ry="36"/>
    <ellipse class="skin" cx="622" cy="900" rx="70" ry="36"/>
    <circle class="white" cx="512" cy="680" r="10"/>
    <polygon class="white" points="486,696 510,676 510,710"/>
    <polygon class="white" points="538,696 514,676 514,710"/>
  </g>
</svg>